<svg width="52" height="52" viewBox="0 0 52 52" fill="none" xmlns="http://www.w3.org/2000/svg">
<circle cx="26" cy="26" r="26" fill="#31BEF4"/>
<path d="M21.942 15.176C22.6047 15.372 23.1413 15.7173 23.552 16.212C23.972 16.6973 24.182 17.2853 24.182 17.976C24.182 18.984 23.8413 19.7727 23.16 20.342C22.488 20.9113 21.662 21.196 20.682 21.196C19.9167 21.196 19.2307 21.0233 18.624 20.678C18.0267 20.3233 17.5927 19.8053 17.322 19.124L18.974 18.172C19.2167 18.928 19.786 19.306 20.682 19.306C21.1767 19.306 21.5593 19.1893 21.83 18.956C22.11 18.7133 22.25 18.3867 22.25 17.976C22.25 17.5747 22.11 17.2527 21.83 17.01C21.5593 16.7673 21.1767 16.646 20.682 16.646H20.262L19.52 15.526L21.452 13.006H17.616V11.2H23.776V12.796L21.942 15.176ZM29.4309 11.2C30.7749 11.2 31.8949 11.6713 32.7909 12.614C33.6962 13.5567 34.1489 14.7187 34.1489 16.1C34.1489 17.4813 33.6962 18.6433 32.7909 19.586C31.8949 20.5287 30.7749 21 29.4309 21H25.5389V11.2H29.4309ZM29.4309 19.152C30.2802 19.152 30.9709 18.872 31.5029 18.312C32.0349 17.7427 32.3009 17.0053 32.3009 16.1C32.3009 15.1947 32.0349 14.462 31.5029 13.902C30.9709 13.3327 30.2802 13.048 29.4309 13.048H27.4709V19.152H29.4309Z" fill="white"/>
<path d="M26.5903 26H25.2096C22.3562 26 20.1211 28.3253 20.1211 31.2939V38.7056C20.1211 41.6744 22.3562 44 25.2096 44H26.5903C29.509 44 31.8836 41.625 31.8836 38.7056V31.2939C31.8836 28.3748 29.509 26 26.5903 26ZM25.9489 28.7742H26.0558C26.2227 28.7742 26.3586 28.9101 26.3586 29.0771V31.2332C26.3586 31.4002 26.2227 31.536 26.0558 31.536H25.9489C25.782 31.536 25.6461 31.4002 25.6461 31.2332V29.0771C25.6461 28.9101 25.782 28.7742 25.9489 28.7742ZM31.1913 38.7056C31.1913 41.2432 29.1273 43.3077 26.5903 43.3077H25.2096C22.7444 43.3077 20.8133 41.2862 20.8133 38.7056V31.2939C20.8133 28.7136 22.7444 26.6923 25.2096 26.6923H25.652V28.1273C25.2479 28.2539 24.9538 28.6318 24.9538 29.0771V31.2332C24.9538 31.6785 25.2479 32.0564 25.652 32.183V33.9641C25.652 34.1553 25.8069 34.3102 25.9981 34.3102C26.1892 34.3102 26.3442 34.1553 26.3442 33.9641V32.1855C26.7527 32.0616 27.0509 31.6816 27.0509 31.2332V29.0771C27.0509 28.6287 26.7527 28.2487 26.3442 28.1247V26.6923H26.5903C29.1273 26.6923 31.1913 28.7565 31.1913 31.2939V38.7056Z" fill="white"/>
</svg>
