<svg width="35" height="45" viewBox="0 0 35 45" fill="none" xmlns="http://www.w3.org/2000/svg">
<path d="M34.1003 9.64969L24.7253 0.274658C24.5495 0.098877 24.3115 0 24.0624 0H4.37494C2.30679 0 0.625 1.68179 0.625 3.75003V41.2501C0.625 43.3182 2.30679 45 4.37503 45H30.6251C32.6932 45 34.375 43.3182 34.375 41.25V10.3125C34.375 10.0635 34.2761 9.82547 34.1003 9.64969ZM25 3.20071L31.1743 9.37503H26.8749C25.8413 9.37503 25 8.53365 25 7.50006V3.20071ZM32.5 41.25C32.5 42.2836 31.6587 43.1249 30.6251 43.1249H4.37503C3.34144 43.1249 2.50006 42.2836 2.50006 41.25V3.75003C2.50006 2.71644 3.34144 1.87506 4.37503 1.87506H23.125V7.50006C23.125 9.56821 24.8068 11.25 26.875 11.25H32.5V41.25Z" fill="#31BEF4"/>
<path d="M22.2799 27.5217C21.412 26.8387 20.5872 26.1365 20.0378 25.5872C19.3237 24.8731 18.6874 24.181 18.1345 23.5218C18.997 20.8567 19.3751 19.4825 19.3751 18.75C19.3751 15.6382 18.2508 15 16.5626 15C15.2799 15 13.7501 15.6665 13.7501 18.8398C13.7501 20.2387 14.5164 21.937 16.0352 23.9109C15.6635 25.0452 15.2268 26.3535 14.7361 27.8284C14.4999 28.5361 14.2436 29.1916 13.9725 29.7977C13.7519 29.8957 13.5376 29.9955 13.3307 30.0989C12.5855 30.4716 11.8778 30.8066 11.2214 31.1179C8.22754 32.5351 6.25 33.4727 6.25 35.3238C6.25 36.6679 7.7103 37.5 9.0625 37.5C10.8056 37.5 13.4378 35.1718 15.3604 31.2497C17.3562 30.4623 19.8374 29.8791 21.7957 29.5138C23.3649 30.7205 25.098 31.875 25.9375 31.875C28.262 31.875 28.75 30.531 28.75 29.404C28.75 27.1874 26.2176 27.1874 25 27.1874C24.6219 27.1875 23.6075 27.2992 22.2799 27.5217ZM9.0625 35.625C8.52689 35.625 8.16435 35.3723 8.12497 35.3238C8.12497 34.6591 10.1071 33.7198 12.0242 32.8116C12.146 32.754 12.2696 32.6962 12.395 32.6367C10.987 34.6784 9.59441 35.625 9.0625 35.625ZM15.625 18.8398C15.625 16.8751 16.2348 16.8751 16.5626 16.8751C17.2254 16.8751 17.5001 16.8751 17.5001 18.75C17.5001 19.1455 17.2364 20.1343 16.7539 21.6779C16.0177 20.5445 15.625 19.5731 15.625 18.8398ZM16.3437 28.9161C16.4023 28.7531 16.4591 28.5883 16.514 28.4217C16.8619 27.378 17.1751 26.4405 17.4543 25.5964C17.8434 26.0248 18.2627 26.4634 18.7123 26.9129C18.8881 27.0887 19.3238 27.4842 19.9043 27.9794C18.7487 28.2312 17.5192 28.5434 16.3437 28.9161ZM26.875 29.404C26.875 29.8252 26.875 30 26.0053 30.0056C25.7499 29.9506 25.1593 29.6028 24.4305 29.1065C24.6951 29.0773 24.8901 29.0626 25 29.0626C26.3852 29.0626 26.778 29.198 26.875 29.404Z" fill="#31BEF4"/>
</svg>
