<svg width="24" height="22" viewBox="0 0 24 22" fill="none" xmlns="http://www.w3.org/2000/svg">
<path d="M15.7986 18.7249C15.8377 18.7314 15.8766 18.7346 15.915 18.7346C16.2525 18.7346 16.5504 18.4909 16.6077 18.1469L17.3109 13.9282C17.3747 13.5452 17.1159 13.1829 16.7329 13.119C16.3498 13.055 15.9876 13.3139 15.9237 13.697L15.2206 17.9158C15.1568 18.2988 15.4155 18.6611 15.7986 18.7249Z" fill="#31BEF4"/>
<path d="M7.43937 18.1469C7.49669 18.4908 7.79454 18.7346 8.13209 18.7346C8.17048 18.7346 8.20938 18.7314 8.24852 18.7249C8.63159 18.661 8.89034 18.2988 8.82649 17.9157L8.12337 13.6969C8.05952 13.3139 7.69732 13.0552 7.31421 13.119C6.93115 13.1828 6.6724 13.5451 6.73624 13.9281L7.43937 18.1469Z" fill="#31BEF4"/>
<path d="M23.2969 7.48443H20.8223L15.4084 0.717084C15.1659 0.413944 14.7234 0.364678 14.4202 0.607303C14.1169 0.849881 14.0677 1.29233 14.3104 1.59557L19.0215 7.48443H4.97855L9.68967 1.59557C9.93225 1.29233 9.88308 0.849834 9.57989 0.607303C9.27661 0.364678 8.83416 0.413897 8.59163 0.717084L3.1777 7.48443H0.703125C0.314812 7.48443 0 7.79924 0 8.18755V11.0001C0 11.3884 0.314812 11.7032 0.703125 11.7032H1.57903L4.24584 21.037C4.33205 21.3388 4.60795 21.5469 4.92188 21.5469H19.0781C19.392 21.5469 19.668 21.3388 19.7542 21.037L22.421 11.7032H23.2969C23.6852 11.7032 24 11.3884 24 11.0001V8.18755C24 7.79924 23.6852 7.48443 23.2969 7.48443ZM18.5478 20.1407H5.45222L3.04153 11.7032H20.9585L18.5478 20.1407ZM22.5938 10.2969C20.1851 10.2969 3.68813 10.2969 1.40625 10.2969V8.89068H22.5938V10.2969Z" fill="#31BEF4"/>
<path d="M12 18.7344C12.3883 18.7344 12.7031 18.4196 12.7031 18.0312V13.8125C12.7031 13.4242 12.3883 13.1094 12 13.1094C11.6117 13.1094 11.2969 13.4242 11.2969 13.8125V18.0312C11.2969 18.4196 11.6117 18.7344 12 18.7344Z" fill="#31BEF4"/>
</svg>
