<svg width="24" height="24" viewBox="0 0 24 24" fill="none" xmlns="http://www.w3.org/2000/svg">
<path d="M8.24564 11.25C9.89985 11.25 11.2456 10.1565 11.2456 8.81245C11.2456 8.71299 11.2061 8.61761 11.1358 8.54729C11.0655 8.47696 10.9701 8.43745 10.8706 8.43745C10.7712 8.43745 10.6758 8.47696 10.6055 8.54729C10.5351 8.61761 10.4956 8.71299 10.4956 8.81245C10.4956 9.64711 9.68334 10.3417 8.62064 10.476V9.28589C8.6603 9.2661 8.69836 9.24324 8.73445 9.2175L9.37087 8.76333C9.48766 8.67857 9.58257 8.5672 9.64773 8.43845C9.7129 8.30971 9.74644 8.16728 9.74559 8.02298C9.74559 7.52789 9.35821 7.12509 8.88206 7.12509H7.60917C7.13301 7.12509 6.74564 7.52789 6.74564 8.02298C6.74478 8.16728 6.77833 8.30971 6.84349 8.43845C6.90866 8.5672 7.00357 8.67857 7.12035 8.76333L7.75678 9.2175C7.79287 9.24325 7.83094 9.26612 7.87064 9.28589V10.476C6.80793 10.3417 5.99564 9.64711 5.99564 8.81245C5.99564 8.71299 5.95613 8.61761 5.8858 8.54729C5.81547 8.47696 5.72009 8.43745 5.62064 8.43745C5.52118 8.43745 5.4258 8.47696 5.35547 8.54729C5.28514 8.61761 5.24564 8.71299 5.24564 8.81245C5.24564 10.1565 6.59142 11.25 8.24564 11.25ZM7.5561 8.15273C7.53662 8.13728 7.52102 8.11749 7.51054 8.09493C7.50006 8.07238 7.49499 8.0477 7.49573 8.02284C7.49573 7.94268 7.54776 7.87495 7.60926 7.87495H8.8822C8.94375 7.87495 8.99573 7.94268 8.99573 8.02284C8.99646 8.0477 8.99138 8.07239 8.98089 8.09494C8.9704 8.11749 8.95479 8.13728 8.93531 8.15273L8.29889 8.60686C8.28364 8.6186 8.26495 8.62497 8.24571 8.62497C8.22647 8.62497 8.20777 8.6186 8.19253 8.60686L7.5561 8.15273Z" fill="#31BEF4"/>
<path d="M10.4956 7.125C10.7027 7.125 10.8706 6.95711 10.8706 6.75C10.8706 6.54289 10.7027 6.375 10.4956 6.375C10.2885 6.375 10.1206 6.54289 10.1206 6.75C10.1206 6.95711 10.2885 7.125 10.4956 7.125Z" fill="#31BEF4"/>
<path d="M5.99564 7.125C6.20274 7.125 6.37064 6.95711 6.37064 6.75C6.37064 6.54289 6.20274 6.375 5.99564 6.375C5.78853 6.375 5.62064 6.54289 5.62064 6.75C5.62064 6.95711 5.78853 7.125 5.99564 7.125Z" fill="#31BEF4"/>
<path d="M18 14.625C18.2967 14.625 18.5867 14.537 18.8334 14.3722C19.08 14.2074 19.2723 13.9731 19.3858 13.699C19.4994 13.4249 19.5291 13.1233 19.4712 12.8324C19.4133 12.5414 19.2705 12.2741 19.0607 12.0643C18.8509 11.8546 18.5836 11.7117 18.2926 11.6538C18.0017 11.5959 17.7001 11.6256 17.426 11.7392C17.1519 11.8527 16.9176 12.045 16.7528 12.2916C16.588 12.5383 16.5 12.8283 16.5 13.125C16.5004 13.5227 16.6586 13.904 16.9398 14.1852C17.221 14.4664 17.6023 14.6246 18 14.625ZM18 12.375C18.1483 12.375 18.2933 12.419 18.4167 12.5014C18.54 12.5838 18.6362 12.7009 18.6929 12.838C18.7497 12.975 18.7645 13.1258 18.7356 13.2713C18.7067 13.4168 18.6352 13.5505 18.5303 13.6553C18.4255 13.7602 18.2918 13.8317 18.1463 13.8606C18.0008 13.8895 17.85 13.8747 17.713 13.8179C17.5759 13.7612 17.4588 13.665 17.3764 13.5417C17.294 13.4184 17.25 13.2733 17.25 13.125C17.2502 12.9262 17.3293 12.7355 17.4699 12.5949C17.6105 12.4543 17.8012 12.3752 18 12.375Z" fill="#31BEF4"/>
<path d="M23.2508 15.375H21.0008V10.5C21.0009 10.4231 20.9771 10.348 20.9329 10.2851L18.3079 6.53511C18.2733 6.48571 18.2273 6.44538 18.1738 6.41753C18.1204 6.38969 18.0609 6.37515 18.0006 6.37515C17.9404 6.37515 17.8809 6.38969 17.8275 6.41753C17.774 6.44538 17.728 6.48571 17.6934 6.53511L15.0684 10.2851C15.0243 10.3481 15.0007 10.4231 15.0008 10.5V12.8467C14.4873 12.1564 13.8022 11.5835 12.9562 11.1417C13.7915 10.16 14.2466 8.8843 14.2466 7.50003C14.2486 6.88837 14.1558 6.2801 13.9716 5.69684C14.3369 5.50405 14.6515 5.22778 14.8898 4.89051C15.1282 4.55324 15.2837 4.16448 15.3435 3.75583C15.4034 3.34718 15.366 2.93017 15.2343 2.5387C15.1027 2.14723 14.8805 1.79234 14.5859 1.50289C14.2913 1.21345 13.9325 0.997599 13.5388 0.872901C13.145 0.748202 12.7274 0.718171 12.3199 0.785248C11.9124 0.852324 11.5264 1.01462 11.1934 1.25893C10.8604 1.50325 10.5898 1.82269 10.4035 2.1913C9.70496 1.97607 8.97752 1.8694 8.24662 1.87503C7.51575 1.8694 6.78836 1.97608 6.0899 2.19134C5.9036 1.82273 5.63295 1.50329 5.29995 1.25897C4.96696 1.01465 4.58101 0.852352 4.17348 0.78527C3.76595 0.718188 3.34834 0.748214 2.9546 0.872907C2.56086 0.9976 2.2021 1.21344 1.90748 1.50289C1.61286 1.79233 1.3907 2.14721 1.25905 2.53868C1.1274 2.93015 1.08998 3.34716 1.14983 3.75581C1.20968 4.16446 1.36511 4.55323 1.6035 4.8905C1.84188 5.22778 2.15648 5.50404 2.52173 5.69684C2.33748 6.2801 2.24468 6.88837 2.24662 7.50003C2.24662 8.8843 2.70196 10.16 3.53704 11.1417C1.71135 12.0952 0.634913 13.6591 0.414085 15.6951C0.413617 15.6998 0.413148 15.7045 0.41282 15.7092L0.376773 16.2239C0.375578 16.2409 0.375578 16.2578 0.376773 16.2747C0.406757 16.7137 0.56451 17.1343 0.830594 17.4847C1.09668 17.8351 1.45946 18.0999 1.87424 18.2467C1.62682 18.7537 1.49908 19.3108 1.50084 19.875C1.50084 21.736 2.84662 23.25 4.50084 23.25C5.39146 23.25 6.19223 22.8107 6.74216 22.1151C7.2049 22.3677 7.72365 22.5 8.25084 22.5C8.77802 22.5 9.29677 22.3677 9.75951 22.1151C10.3094 22.8107 11.1102 23.25 12.0008 23.25C13.1763 23.25 14.1954 22.4852 14.6872 21.375H23.2508C23.3503 21.375 23.4457 21.3355 23.516 21.2652C23.5863 21.1949 23.6258 21.0995 23.6258 21V15.75C23.6258 15.6506 23.5863 15.5552 23.516 15.4849C23.4457 15.4145 23.3503 15.375 23.2508 15.375ZM18.0008 7.40394L19.9056 10.125H16.0961L18.0008 7.40394ZM15.7508 10.875H20.2508V15.375H16.036C15.9769 14.9918 15.8814 14.6151 15.7508 14.25V10.875ZM14.6262 18.2441C14.9795 18.1172 15.2958 17.9045 15.5465 17.625H16.1258V19.125H14.9252C14.8639 18.8197 14.7634 18.5236 14.6262 18.2441ZM15.3327 15.7691L15.3665 16.2497C15.3395 16.5671 15.2123 16.8677 15.0034 17.1082C14.7944 17.3486 14.5145 17.5165 14.204 17.5875C13.7339 17.015 13.0902 16.626 12.3679 16.5264C12.2996 15.0011 11.7855 13.5937 10.9455 12.6084C11.4751 12.3847 11.9662 12.079 12.4008 11.7026C14.1186 12.5255 15.1307 13.9262 15.3327 15.7688V15.7691ZM12.7466 1.50003C13.1586 1.4999 13.5592 1.63549 13.8865 1.88584C14.2137 2.13619 14.4494 2.48737 14.5571 2.88508C14.6647 3.28279 14.6384 3.7049 14.4821 4.08614C14.3259 4.46739 14.0484 4.78654 13.6926 4.99428C13.4308 4.44573 13.0755 3.94697 12.6426 3.52034C12.1958 3.08218 11.6767 2.72463 11.108 2.4635C11.2708 2.17173 11.5085 1.92865 11.7965 1.7593C12.0845 1.58994 12.4125 1.50045 12.7466 1.50003ZM1.87162 3.37503C1.8715 2.95963 2.00934 2.55595 2.26349 2.22737C2.51764 1.89879 2.87371 1.66391 3.2758 1.5596C3.67789 1.45529 4.10323 1.48746 4.48506 1.65106C4.86689 1.81466 5.18358 2.10043 5.38541 2.4635C4.81675 2.7246 4.29757 3.08216 3.85087 3.52034C3.41793 3.94694 3.06262 4.44569 2.80087 4.99423C2.51832 4.8287 2.28394 4.5922 2.12095 4.30819C1.95795 4.02417 1.872 3.70249 1.87162 3.37503ZM4.37676 4.05509C5.32813 3.11956 6.66646 2.62503 8.24662 2.62503C9.82677 2.62503 11.1651 3.11956 12.1165 4.05514C13.0065 4.9303 13.4966 6.15369 13.4966 7.50003C13.4966 8.84637 13.0065 10.0698 12.1165 10.9449C11.1651 11.8805 9.82691 12.375 8.24662 12.375C6.66632 12.375 5.32813 11.8805 4.37676 10.945C3.48674 10.0698 2.99662 8.84637 2.99662 7.50003C2.99662 6.15369 3.48674 4.9303 4.37676 4.05509ZM1.12682 16.2496L1.16048 15.7689C1.36255 13.9262 2.37454 12.5254 4.09237 11.7025C4.52889 12.0805 5.0224 12.3872 5.55463 12.6112C4.71712 13.5968 4.20243 15.0083 4.13376 16.5262C3.4108 16.6259 2.76646 17.0157 2.29635 17.5889C1.98428 17.5191 1.7026 17.3516 1.49227 17.1108C1.28194 16.8699 1.15392 16.5682 1.12682 16.2496ZM4.50084 22.5C3.26015 22.5 2.25084 21.3225 2.25084 19.875C2.25084 18.4276 3.26015 17.25 4.50084 17.25C5.74152 17.25 6.75084 18.4276 6.75084 19.875C6.75084 21.3225 5.74152 22.5 4.50084 22.5ZM8.25084 21.75C7.86434 21.7488 7.48375 21.6551 7.14084 21.4767C7.37956 20.9766 7.50261 20.4292 7.50084 19.875C7.50084 18.1604 6.35816 16.7414 4.88465 16.5286C4.95674 15.0661 5.48216 13.7292 6.32587 12.8782C6.95223 13.0459 7.59822 13.1289 8.24662 13.125C8.89721 13.1289 9.54537 13.0454 10.1737 12.8766C11.0201 13.7274 11.5455 15.059 11.6172 16.5287C10.1436 16.7413 9.00084 18.1603 9.00084 19.875C8.99907 20.4292 9.12211 20.9766 9.36084 21.4767C9.01792 21.6551 8.63733 21.7488 8.25084 21.75ZM12.0008 22.5C10.7601 22.5 9.75084 21.3225 9.75084 19.875C9.75084 18.4276 10.7601 17.25 12.0008 17.25C13.2415 17.25 14.2508 18.4276 14.2508 19.875C14.2508 21.3225 13.2415 22.5 12.0008 22.5ZM15.0008 19.875H16.5008C16.6003 19.875 16.6957 19.8355 16.766 19.7652C16.8363 19.6949 16.8758 19.5995 16.8758 19.5V17.25C16.8758 17.1506 16.8363 17.0552 16.766 16.9849C16.6957 16.9145 16.6003 16.875 16.5008 16.875H15.9926C16.0613 16.6816 16.1031 16.4796 16.1166 16.2747C16.1178 16.2578 16.1178 16.2409 16.1166 16.2239L16.1097 16.125H17.6258V20.625H14.9252C14.9754 20.3782 15.0007 20.1269 15.0008 19.875ZM22.8758 20.625H18.3758V16.125H22.8758V20.625Z" fill="#31BEF4"/>
<path d="M19.5002 19.8751H21.7502C21.8142 19.8751 21.877 19.8587 21.9328 19.8276C21.9887 19.7965 22.0356 19.7516 22.0692 19.6972C22.1028 19.6428 22.122 19.5808 22.1248 19.5169C22.1277 19.453 22.1142 19.3895 22.0856 19.3323L20.9606 17.0823C20.9295 17.0201 20.8816 16.9677 20.8224 16.9311C20.7631 16.8945 20.6949 16.8751 20.6252 16.8751C20.5556 16.8751 20.4873 16.8945 20.4281 16.9311C20.3689 16.9677 20.321 17.0201 20.2898 17.0823L19.1648 19.3323C19.1363 19.3895 19.1228 19.453 19.1256 19.5169C19.1285 19.5808 19.1476 19.6428 19.1812 19.6972C19.2148 19.7516 19.2618 19.7965 19.3176 19.8276C19.3735 19.8587 19.4363 19.8751 19.5002 19.8751ZM20.6252 18.0886L21.1435 19.1251H20.107L20.6252 18.0886Z" fill="#31BEF4"/>
</svg>
