<svg width="52" height="52" viewBox="0 0 52 52" fill="none" xmlns="http://www.w3.org/2000/svg">
<circle cx="26" cy="26" r="26" fill="#31BEF4"/>
<path d="M26.003 14H25.997C19.3805 14 14 19.382 14 26C14 28.625 14.846 31.058 16.2845 33.0335L14.789 37.4915L19.4015 36.017C21.299 37.274 23.5625 38 26.003 38C32.6195 38 38 32.6165 38 26C38 19.3835 32.6195 14 26.003 14Z" fill="white"/>
<path d="M32.9848 30.9454C32.6953 31.7629 31.5463 32.4409 30.6298 32.6389C30.0028 32.7724 29.1838 32.8789 26.4268 31.7359C22.9003 30.2749 20.6293 26.6914 20.4523 26.4589C20.2828 26.2264 19.0273 24.5614 19.0273 22.8394C19.0273 21.1174 19.9018 20.2789 20.2543 19.9189C20.5438 19.6234 21.0223 19.4884 21.4813 19.4884C21.6298 19.4884 21.7633 19.4959 21.8833 19.5019C22.2358 19.5169 22.4128 19.5379 22.6453 20.0944C22.9348 20.7919 23.6398 22.5139 23.7238 22.6909C23.8093 22.8679 23.8948 23.1079 23.7748 23.3404C23.6623 23.5804 23.5633 23.6869 23.3863 23.8909C23.2093 24.0949 23.0413 24.2509 22.8643 24.4699C22.7023 24.6604 22.5193 24.8644 22.7233 25.2169C22.9273 25.5619 23.6323 26.7124 24.6703 27.6364C26.0098 28.8289 27.0958 29.2099 27.4843 29.3719C27.7738 29.4919 28.1188 29.4634 28.3303 29.2384C28.5988 28.9489 28.9303 28.4689 29.2678 27.9964C29.5078 27.6574 29.8108 27.6154 30.1288 27.7354C30.4528 27.8479 32.1673 28.6954 32.5198 28.8709C32.8723 29.0479 33.1048 29.1319 33.1903 29.2804C33.2743 29.4289 33.2743 30.1264 32.9848 30.9454Z" fill="#31BEF4"/>
</svg>
