<svg width="52" height="52" viewBox="0 0 52 52" fill="none" xmlns="http://www.w3.org/2000/svg">
<circle cx="26" cy="26" r="26" fill="#31BEF4"/>
<g clip-path="url(#clip0)">
<path d="M34.6789 30.704C33.229 29.464 31.7576 28.7128 30.3256 29.951L29.4705 30.6993C28.8449 31.2426 27.6816 33.7807 23.1841 28.607C18.6876 23.4399 21.3634 22.6353 21.99 22.0968L22.8498 21.3475C24.2743 20.1066 23.7367 18.5443 22.7093 16.9362L22.0893 15.9622C21.0572 14.3578 19.9333 13.3041 18.505 14.5432L17.7332 15.2176C17.102 15.6774 15.3374 17.1722 14.9094 20.012C14.3943 23.4193 16.0193 27.3211 19.7422 31.6022C23.4604 35.8852 27.1009 38.0365 30.5495 37.9991C33.4154 37.9682 35.1462 36.4303 35.6876 35.8712L36.4621 35.1959C37.8867 33.9577 37.0016 32.6971 35.5508 31.4542L34.6789 30.704Z" fill="white"/>
<g clip-path="url(#clip1)">
<path d="M27.1619 26.0048L32.3053 25.3353C32.8307 25.2601 33.0573 24.6038 32.6731 24.2318L31.897 23.4805C31.6483 23.2398 31.5903 22.8625 31.831 22.6138L36.3168 17.9799C36.5575 17.7313 36.5736 17.3528 36.3174 17.1048L35.0968 15.9232C34.8557 15.6898 34.4478 15.689 34.2071 15.9376L29.7213 20.5715C29.4806 20.8202 29.1241 20.7962 28.8755 20.5556L28.0995 19.8043C27.7227 19.4396 27.0741 19.6875 27.0232 20.2074L26.4682 25.3041C26.4081 25.7129 26.7549 26.0633 27.1619 26.0048Z" fill="white"/>
</g>
</g>
<defs>
<clipPath id="clip0">
<rect width="24" height="24" fill="white" transform="translate(14 14)"/>
</clipPath>
<clipPath id="clip1">
<rect width="13" height="13" fill="white" transform="translate(40.3828 21.042) rotate(134.07)"/>
</clipPath>
</defs>
</svg>
